<?xml version="1.0" encoding="UTF-8"?>
<svg id="Layer_1" data-name="Layer 1" xmlns="http://www.w3.org/2000/svg" viewBox="0 0 1080 1080">
  <defs>
    <style>
      .cls-1 {
        fill: #0b4ef1;
        stroke-width: 0px;
      }
    </style>
  </defs>
  <path class="cls-1" d="m284.87,450.74l-97.53-56.33c-11.75-6.8-26.28-6.8-38.06,0l-97.53,56.33c-11.79,6.8-19.05,19.37-19.05,32.97v112.62c0,13.6,7.26,26.17,19.05,32.97l97.53,56.29c11.78,6.8,26.31,6.8,38.06,0l97.53-56.29c11.79-6.8,19.05-19.37,19.05-32.97v-112.62c0-13.6-7.26-26.17-19.05-32.97Zm-2.67,136.55c0,11.43-6.09,22-15.99,27.7l-81.89,47.28c-9.9,5.73-22.08,5.73-31.97,0l-81.93-47.28c-9.9-5.7-15.99-16.27-15.99-27.7v-94.57c0-11.43,6.09-21.97,15.99-27.7l81.93-47.29c9.9-5.7,22.08-5.7,31.97,0l81.89,47.29c9.9,5.73,15.99,16.27,15.99,27.7v94.57Z"/>
  <path class="cls-1" d="m500.25,488.62h29.84c.96,0,1.74.78,1.74,1.74v127.65c0,.96-.78,1.74-1.74,1.74h-29.84c-.96,0-1.74-.78-1.74-1.74v-127.65c0-.96.78-1.74,1.74-1.74Z"/>
  <path class="cls-1" d="m639,546.12c-8.01-2.88-16.95-5.23-26.81-6.98l-7.41-1.35c-6.02-1.07-10.75-2.56-14.28-4.63-3.53-2.03-5.27-5.16-5.27-9.37,0-3.88,1.67-6.91,4.98-9.11,3.35-2.21,8.23-3.31,14.56-3.31s11.68,1.42,15.99,4.24c3.92,2.56,6.62,6.69,8.15,12.43.25,1,1.25,1.57,2.21,1.28l27.49-8.44c.93-.28,1.46-1.28,1.14-2.21-3.17-9.79-9.33-17.8-18.48-23.96-9.72-6.52-21.86-9.76-36.5-9.76-15.52,0-28.02,3.45-37.56,10.43-9.51,6.94-14.24,16.95-14.24,29.98,0,8.65,2.28,15.7,6.87,21.15,4.59,5.48,10.65,9.76,18.23,12.82,7.55,3.1,15.95,5.52,25.1,7.26l7.41,1.35c7.76,1.39,13.39,3.2,16.91,5.41,3.53,2.21,5.31,5.34,5.31,9.4s-1.85,7.44-5.55,10.15c-3.7,2.74-9.43,4.09-17.2,4.09-5.13,0-9.83-.75-14.14-2.24-4.31-1.5-7.94-3.99-10.82-7.51-2.63-3.2-4.59-7.44-5.84-12.78-.21-.96-1.17-1.57-2.14-1.32l-27.31,7.09c-.89.21-1.49,1.1-1.32,2.03,2.53,12.93,9.04,22.97,19.55,30.09,10.93,7.41,24.92,11.07,42.02,11.07s30.09-3.7,40.06-11.18c9.97-7.51,14.95-18.12,14.95-31.87,0-9.19-2.35-16.45-7.01-21.83-4.7-5.38-11-9.51-19.05-12.43Z"/>
  <path class="cls-1" d="m805,488.62h-29.8c-1,0-1.74.78-1.74,1.74v64.87c0,12.18-2.85,21.65-8.51,28.41-5.63,6.8-13.53,10.18-23.75,10.18-9.01,0-15.92-2.46-20.76-7.37-4.88-4.95-7.26-12.36-7.26-22.22v-73.88c0-.96-.78-1.74-1.74-1.74h-29.8c-1,0-1.78.78-1.78,1.74v76.52c0,10.75,2.1,20.26,6.34,28.52,4.24,8.33,10.18,14.78,17.84,19.48,7.69,4.63,16.63,6.98,26.85,6.98,11.82,0,20.62-2.1,26.42-6.34,5.41-3.92,9.22-7.94,11.43-12.03.32-.57.89-.93,1.53-.93h1.96c.96,0,1.74.78,1.74,1.74v13.71c0,.96.78,1.74,1.74,1.74h29.3c.96,0,1.75-.78,1.75-1.74v-127.65c0-.96-.78-1.74-1.75-1.74Z"/>
  <path class="cls-1" d="m907.54,488.12h-14.1c-6.02,0-11.25,1.25-15.74,3.7-4.17,2.28-7.26,5.77-9.22,10.5-.25.68-.89,1.1-1.6,1.1h-1.82c-.96,0-1.74-.78-1.74-1.74v-11.32c0-.96-.78-1.74-1.74-1.74h-29.3c-1,0-1.74.78-1.74,1.74v127.65c0,.96.75,1.74,1.74,1.74h29.8c.96,0,1.74-.78,1.74-1.74v-72.81c0-9.33,2.74-16.24,8.22-20.76,5.45-4.49,12.43-6.73,20.87-6.73h14.63c.96,0,1.74-.78,1.74-1.74v-26.1c0-.96-.78-1.74-1.74-1.74Z"/>
  <path class="cls-1" d="m1045.52,592.27h-8.8c-4.95,0-7.41-2.67-7.41-7.94v-48.89c0-16.38-5.02-28.91-15.1-37.56-10.01-8.62-23.68-12.92-40.95-12.92-11.29,0-20.87,1.71-28.7,5.13-7.83,3.45-14.06,7.94-18.76,13.49-4.27,5.09-7.48,10.65-9.61,16.7-.32.93.18,1.92,1.1,2.24l27.2,9.12c.96.36,1.99-.25,2.24-1.25,1.39-5.13,3.88-9.44,7.48-12.78,4.06-3.81,10.22-5.7,18.52-5.7s14.63,1.96,18.51,5.95c3.85,3.95,5.8,9.04,5.8,15.2v5.63c0,.96-.78,1.74-1.74,1.74h-34.22c-9.86,0-18.62,1.57-26.28,4.63-7.69,3.1-13.67,7.69-17.98,13.78-4.34,6.05-6.48,13.6-6.48,22.57s2.14,16.63,6.48,22.89c4.31,6.23,10.15,11,17.59,14.24,7.37,3.28,15.77,4.88,25.1,4.88s16.38-1.28,21.65-3.95c5.31-2.63,9.19-5.66,11.64-9.12,2.06-2.88,3.56-5.34,4.38-7.3.25-.6.89-1,1.57-1h3.85v.25c0,5.27,2.1,9.51,6.34,12.68,4.24,3.17,9.58,4.77,16.13,4.77h20.44c1,0,1.78-.78,1.78-1.74v-24c0-.96-.78-1.74-1.78-1.74Zm-48.46-24.32c0,8.62-2.96,15.52-8.87,20.76-5.91,5.2-13.53,7.76-22.86,7.76-7.05,0-12.43-1.46-16.09-4.49-3.74-2.99-5.59-6.87-5.59-11.61s1.78-8.47,5.31-11.14c3.52-2.63,8.37-3.92,14.53-3.92h33.58v2.63Z"/>
  <path class="cls-1" d="m479.85,488.64h-32.46c-.96,0-1.75-.78-1.75-1.75v-30.66c0-.96-.78-1.75-1.75-1.75h-29.8c-.96,0-1.75.78-1.75,1.75v30.66c0,.96-.78,1.75-1.75,1.75h-29.28c-.96,0-1.75.78-1.75,1.75v24.01c0,.96.78,1.75,1.75,1.75h29.28c.96,0,1.75.78,1.75,1.75v72.26c0,9,2.69,16.17,8.06,21.54,5.37,5.37,12.37,8.06,21.02,8.06h35.24c.96,0,1.75-.78,1.75-1.75v-23.99c0-.96-.78-1.75-1.75-1.75h-23.61c-4.95,0-7.42-2.66-7.42-7.94v-66.44c0-.96.78-1.75,1.75-1.75h32.46c.96,0,1.75-.78,1.75-1.75v-24.01c0-.96-.78-1.75-1.75-1.75Z"/>
  <path class="cls-1" d="m531.02,444.43l-13.27-7.66c-1.6-.93-3.58-.93-5.18,0l-13.27,7.66c-1.6.93-2.59,2.64-2.59,4.49v15.32c0,1.85.99,3.56,2.59,4.49l13.27,7.66c1.6.93,3.58.93,5.18,0l13.27-7.66c1.6-.93,2.59-2.64,2.59-4.49v-15.32c0-1.85-.99-3.56-2.59-4.49Z"/>
  <path class="cls-1" d="m256.06,542.99c-.5-.85-1.32-1.5-2.28-1.74-1-.25-1.99-.14-2.88.36l-14.95,8.65-7.05-12.21,12.28-7.09.04-.04-7.16-12.39-.04-.04-12.36,7.12-.07.04,7.12,12.36-12.21,7.05-7.12-12.28v-.07l-12.39,7.16-.07.04,7.16,12.39.04.04,12.32-7.12,7.09,12.25-22.22,12.78c-2.63,1.53-5.91,1.53-8.54,0l-16.34-9.44c-3.35-1.92-7.51-1.92-10.86,0l-22.4,12.92c-3.35,1.92-5.45,5.55-5.45,9.4v25.89c0,3.85,2.1,7.48,5.41,9.4l22.43,12.93c1.64.96,3.52,1.46,5.41,1.46s3.77-.5,5.45-1.46l22.4-12.93c3.35-1.92,5.41-5.55,5.41-9.4v-19.9c0-2.14.96-4.09,2.53-5.41l51.31-29.62c.18-.11.32-.28.46-.39.39-.32.71-.71.96-1.18.04-.07.04-.11.07-.18.11-.18.21-.36.29-.57.29-.96.14-1.99-.39-2.85l-3.38-5.91Zm-66.12,59.96c0,2.53-1.32,4.84-3.52,6.09l-11.93,6.91c-2.17,1.25-4.88,1.25-7.05,0l-11.93-6.91c-2.17-1.25-3.53-3.56-3.53-6.09v-13.78c0-2.53,1.35-4.84,3.53-6.09l11.93-6.91c2.17-1.25,4.88-1.25,7.05,0l11.93,6.91c2.21,1.25,3.52,3.56,3.52,6.09v13.78Z"/>
  <path class="cls-1" d="m139.7,540.11l-7.16-12.36-.04-.07-12.32,7.12-7.05-12.25,22.15-12.78c2.67-1.53,5.95-1.53,8.58,0l16.38,9.47c1.67.96,3.56,1.46,5.41,1.46s3.77-.5,5.41-1.46l22.43-12.96c3.35-1.92,5.45-5.52,5.45-9.4v-25.85c0-3.88-2.1-7.48-5.45-9.44l-22.4-12.89c-3.35-1.96-7.51-1.96-10.86,0l-22.4,12.89c-3.35,1.96-5.45,5.55-5.45,9.44v19.9c0,2.07-.92,4.02-2.46,5.34l-51.38,29.66c-.85.53-1.5,1.35-1.78,2.31-.25,1-.11,1.99.39,2.88l3.38,5.87c.71,1.21,1.99,1.89,3.31,1.89.64,0,1.28-.18,1.89-.5l14.92-8.65,7.09,12.25-12.28,7.05-.07.07,7.16,12.36.04.07,12.39-7.16.07-.04-7.12-12.32,12.21-7.05,7.09,12.28.04.04,12.39-7.16.04-.04Zm6.98-63.06c0-2.49,1.35-4.84,3.52-6.09l11.93-6.87c2.21-1.28,4.88-1.28,7.05,0l11.93,6.87c2.21,1.25,3.56,3.6,3.56,6.09v13.81c0,2.49-1.35,4.84-3.52,6.09l-11.93,6.91c-2.21,1.25-4.88,1.25-7.09,0l-11.93-6.91c-2.17-1.25-3.52-3.6-3.52-6.09v-13.81Z"/>
</svg>
