<?xml version="1.0" encoding="UTF-8"?>
<svg id="Layer_1" data-name="Layer 1" xmlns="http://www.w3.org/2000/svg" viewBox="0 0 1080 1080">
  <defs>
    <style>
      .cls-1 {
        fill: #FFFFFF;
        stroke-width: 0px;
      }
    </style>
  </defs>
  <path class="cls-1" d="m883.79,276.71l-287.66-166.14c-34.66-20.06-77.51-20.06-112.27,0l-287.66,166.14c-34.76,20.06-56.19,57.13-56.19,97.25v332.19c0,40.12,21.42,77.19,56.19,97.25l287.66,166.04c34.76,20.06,77.61,20.06,112.27,0l287.66-166.04c34.76-20.06,56.19-57.13,56.19-97.25v-332.19c0-40.12-21.42-77.19-56.19-97.25Zm-7.88,402.76c0,33.71-17.96,64.9-47.15,81.71l-241.55,139.47c-29.2,16.91-65.11,16.91-94.31,0l-241.66-139.47c-29.2-16.8-47.15-48-47.15-81.71v-278.94c0-33.71,17.96-64.8,47.15-81.71l241.66-139.47c29.2-16.8,65.11-16.8,94.31,0l241.55,139.47c29.2,16.91,47.15,48,47.15,81.71v278.94Z"/>
  <path class="cls-1" d="m798.83,548.82c-1.47-2.52-3.89-4.41-6.72-5.15-2.94-.73-5.88-.42-8.51,1.05l-44.11,25.52-20.79-36.02,36.23-20.9.1-.11-21.11-36.55-.11-.11-36.44,21-.21.11,21,36.44-36.02,20.79-21-36.23v-.21l-36.55,21.11-.21.11,21.11,36.55.1.11,36.34-21,20.9,36.13-65.53,37.7c-7.77,4.52-17.43,4.52-25.2,0l-48.21-27.83c-9.87-5.67-22.16-5.67-32.03,0l-66.06,38.12c-9.87,5.67-16.06,16.38-16.06,27.73v76.35c0,11.34,6.19,22.05,15.96,27.73l66.16,38.12c4.83,2.83,10.4,4.31,15.96,4.31s11.13-1.47,16.07-4.31l66.06-38.12c9.87-5.67,15.96-16.38,15.96-27.73v-58.71c0-6.3,2.84-12.08,7.46-15.96l151.34-87.38c.53-.32.95-.84,1.37-1.16,1.15-.95,2.1-2.1,2.84-3.47.11-.21.11-.32.21-.53.32-.53.63-1.05.84-1.68.84-2.84.42-5.88-1.15-8.4l-9.98-17.43Zm-195.03,176.86c0,7.46-3.89,14.28-10.4,17.96l-35.18,20.38c-6.41,3.67-14.39,3.67-20.79,0l-35.18-20.38c-6.41-3.68-10.4-10.5-10.4-17.96v-40.64c0-7.46,3.99-14.28,10.4-17.96l35.18-20.37c6.41-3.68,14.39-3.68,20.79,0l35.18,20.37c6.51,3.68,10.4,10.5,10.4,17.96v40.64Z"/>
  <path class="cls-1" d="m455.61,540.32l-21.11-36.44-.11-.21-36.34,21-20.79-36.13,65.32-37.7c7.88-4.52,17.54-4.52,25.31,0l48.31,27.93c4.93,2.84,10.5,4.31,15.96,4.31s11.13-1.47,15.96-4.31l66.16-38.23c9.87-5.67,16.07-16.28,16.07-27.73v-76.25c0-11.45-6.2-22.05-16.07-27.83l-66.06-38.02c-9.87-5.78-22.16-5.78-32.03,0l-66.06,38.02c-9.87,5.78-16.07,16.38-16.07,27.83v58.71c0,6.09-2.73,11.87-7.25,15.75l-151.55,87.48c-2.52,1.57-4.41,3.99-5.25,6.83-.74,2.94-.31,5.88,1.16,8.51l9.98,17.33c2.1,3.57,5.88,5.57,9.77,5.57,1.89,0,3.78-.52,5.57-1.47l44-25.52,20.9,36.13-36.23,20.79-.21.21,21.11,36.44.11.21,36.55-21.11.21-.11-21-36.34,36.02-20.8,20.9,36.23.11.11,36.55-21.11.11-.11Zm20.58-186c0-7.35,3.99-14.28,10.4-17.96l35.18-20.27c6.51-3.78,14.39-3.78,20.79,0l35.18,20.27c6.51,3.68,10.5,10.61,10.5,17.96v40.75c0,7.35-3.99,14.28-10.4,17.96l-35.18,20.38c-6.51,3.68-14.39,3.68-20.9,0l-35.18-20.38c-6.41-3.68-10.4-10.61-10.4-17.96v-40.75Z"/>
</svg>